<?xml version="1.0" encoding="UTF-8"?>
<svg id="BREIF" xmlns="http://www.w3.org/2000/svg" viewBox="0 0 609.12 399.69">
  <defs>
    <style>
      .cls-1 {
        letter-spacing: 0em;
      }

      .cls-2 {
        letter-spacing: -.02em;
      }

      .cls-3 {
        letter-spacing: 0em;
      }

      .cls-4 {
        font-family: AveriaSerifLibre-Bold, 'Averia Serif Libre';
        font-size: 79.51px;
        font-weight: 700;
      }

      .cls-4, .cls-5 {
        fill: #1e1e1c;
      }

      .cls-6 {
        letter-spacing: 0em;
      }

      .cls-7 {
        letter-spacing: 0em;
      }

      .cls-5 {
        stroke-width: 0px;
      }
    </style>
  </defs>
  <path class="cls-5" d="m208.42,339.76c-.41.03-2.11.55-5.53,1.59-6.12,1.86-6.27,1.85-8.6,2.78-6.81,2.71-14.88,1.3-17.67.81-6.03-1.06-4.45-2.3-14.05-4.86-1.38-.37-4.17-1.07-7.03-3.2-1.31-.97-3.91-2.92-3.93-5.48,0-1.12.49-1.43,1.34-3.62.23-.59.66-1.75,1.45-5.48,1.07-5.05,1.13-6.92,1.55-8.78.83-3.64,3.03-6.11,7.44-11.06,2.89-3.24,5.87-5.99,12.81-13.12.87-.9,2.14-2.23,3.1-4.34,1.36-3.02.61-4.39,1.45-6.92.85-2.57,3.05-4.26,7.44-7.65,2.26-1.74,5.31-3.78,9.3-4.65,1.46-.32,2.78-.43,3.51.31.5.5.45,1.12.38,3.96,0,.26-.06,2.82.21,5.67.11,1.13.25,2.06.95,2.57.62.44,1.38.34,1.65.31,2.2-.27,7.62-.76,9.92-.72,3.22.05,7.01,1.22,9.64,2.65.68.37,2.04,1.17,4,1.38.7.07,2.11.21,3.67-.37,1.96-.73,3-2.18,5.09-5.09.89-1.24,1.41-1.98,1.86-3.16.65-1.7.72-3.19.72-4.23-.02-7.61-2.01-13.2-2.01-13.2-2.84-8-5.38-12.59-6.89-16.06-4.34-10-3.8-19.17-3.26-28.56.34-5.89,1.05-16.35,6.71-28.37,3.86-8.21,9.91-16.88,15.72-21.66,3.15-2.59,6.05-5.51,9.39-7.86,2.35-1.66,3.57-2.3,4.6-4.02,2.48-4.15.69-9.28.38-10.16-1.67-4.78-5.37-7.38-8.62-9.58-4.26-2.89-6.29-2.87-12.46-5.75,0,0-5.41-2.52-11.69-6.71-7.01-4.66-14.86-12.68-19.55-22.42-10.34-21.49-1.48-43.49.38-48.11,5.7-14.15,14.83-22.46,19.74-26.83,4.75-4.23,16.1-14.09,33.93-17.82,7.13-1.49,19.43-4.07,32.2,1.34,8.13,3.45,14.44,9.28,19.74,14.18,8.17,7.55,8.71,10.55,15.52,14.57,3.41,2.01,10.06,5.8,19.17,5.37,2.31-.11,10.58-.61,17.44-6.32,4.05-3.37,5.38-6.7,6.37-6.3,1.73.69-.58,11.38-3.63,20.89-6,18.73-9.01,28.09-17.86,35.42-11.1,9.19-28.56,13.59-41.78,8.17-11.76-4.82-19.07-13.32-19.07-13.32-3.09-3.6-5.79-7.95-11.81-10.6-2.18-.96-6.39-2.81-9.69-.91-3.66,2.11-4.46,7.83-3.63,11.81,1.01,4.88,4.68,8.13,13.93,13.93,18.96,11.88,22.71,10.2,28.1,16.85,7.87,9.69,6.89,21.86,6.71,24.02-.33,4.04-.96,11.94-6.96,17.56-1.55,1.45-7.66,7.17-13.57,6.39-1.08-.14-4.01-.75-4.9.57-.29.43-.33,1.01-.21,1.44.7,2.6,7.63,1.6,15.54,4.29,2.6.88,4.33,1.86,7.77,3.82,9.62,5.46,18.49,10.52,24.46,20.88,6.04,10.48,6.17,20.54,6.17,23.7,0,0,0,10.64-4.38,21.11-1.98,4.72-2.97,7.08-3.51,7.85-.98,1.39-1.97,2.42-1.87,3.9.12,1.75,1.67,2.71,2.99,3.98,2.76,2.68,3.59,5.9,4.58,9.76,1.17,4.58.71,8.16.15,12.36-.84,6.4-1.4,10.7-4.84,13.3-.24.18-3.56,2.63-7.09,1.81-.62-.14-1.7-.41-2.24-1.3-.76-1.25.15-2.73.58-4.41.69-2.71-.14-4.94-1.81-9.4-1.08-2.9-2.03-5.44-4.27-7.81-2.71-2.87-4.11-1.89-8.75-5.06-3.95-2.7-6.41-5.73-8.01-7.7-1.54-1.9-3.04-3.75-4.42-6.55-1.74-3.52-4.34-10.67-5.15-15.04-.13-.69-.48-2.79-1.68-3.14-.08-.02-.36-.11-.61-.02-1.5.56-.22,7.54-.13,8.01.3,1.59,1.48,7.35,5.69,14.82.54.96.14.41,4.84,7.95,2.02,3.24,3.02,4.85,3.25,5.42,1.6,4,.69,6.76.14,15.55-.31,4.96-.05,4.65-.29,8.24-.26,3.83-.9,12.5-4.5,22.46-.66,1.83-3.9,10.56-11.19,20.2,0,0-9.59,12.69-24.71,21.54-.78.45-1.72.88-3.6,1.74-3.26,1.48-4.12,1.64-4.75,1.27-.63-.38-.71-1.11-.98-2.49-.24-1.23-1.12-5.63-2.92-8.52-1.74-2.79-2.51-3.05-2.82-3.06-.69-.02-1.46.42-1.73,1.05-.37.85.31,1.74,1.17,3.42.64,1.26,1.04,2.63,1.61,3.92,1.59,3.63,2.13,7.86,2.42,10.12.45,3.53.85,6.71.2,10.38-1.18,6.64-5.14,11.05-7.41,13.52-3.66,3.98-3.88,2.36-15.52,10.72,0,0-4.34,3.11-11.99,7.43-3.84,2.16-6.15,3.27-7.72,2.27-1.48-.94-1.81-3.42-1.43-5.21.47-2.18,1.96-3.18,3.68-4.9,3.1-3.11,4.56-6.22,6.43-10.21.88-1.88,2.47-5.32,3.17-10.11.3-2.08.93-7.23-1.02-13.07-2.67-7.99-9.99-16.6-16.65-16.06Zm-21.14-27.37c-2.69,0-4.87,2.18-4.87,4.87s2.18,4.87,4.87,4.87,4.87-2.18,4.87-4.87-2.18-4.87-4.87-4.87Zm14.91-15.24c.95-.42.66-1.52,1.7-3.09.87-1.31,2-1.95,3.51-2.82.45-.26.85-.45.92-.48,1.46-.69,2.91-1.07,2.91-1.07h0s4.67-.69,5.84-.7c.12,0,.4,0,.59.18.05.05.17.18.21.47.47,3.37-.81,7.07-.81,7.07-.51,1.49-.77,2.23-1.38,3.15-.64.97-1.87,2.47-2.02,2.66-.93,1.13-1.27,1.44-1.24,1.98.04.78.82,1.62,1.67,1.75,1.55.23,3.14-1.99,4.15-3.4.13-.19.32-.44.54-.8,2.91-4.79,2.03-11.14,2.34-14.83.02-.25.08-.91-.32-1.28-.33-.3-.82-.26-1.02-.24-8.39.76-9.17.92-10.4,1.19-3.1.69-3.16.7-3.42.8-.86.33-3.9,1.56-5.64,4.63-.6,1.05-1.59,2.8-.8,3.99.53.81,1.8,1.23,2.66.85Zm-2.89,53.58c-6.14,3.98-7.08,2.54-13.02,6.51-7.83,5.24-9.84,10.17-9.64,12.13.14,1.4.9,2.19.9,2.19.81.84,1.94.95,2.37.99,3.84.37,11.54-4.87,19.02-5.83,5.18-.66,5.84,1.29,12.28.19,2.99-.51,8.1-1.39,9.12-4.47.46-1.4-.8-3.62-3.35-8-5.41-9.31-5.94-10.15-7.26-10.42-2.77-.56-3.92,2.48-10.42,6.7Zm133.4-127.96c-.71.65-.71,1.66-.7,2.18.02,1.23.48,1.36.79,2.8.4,1.87-.18,2.56.44,3.23.57.62,1.76.8,2.45.35,1.28-.85.54-3.73.17-5.15-.14-.53-.98-3.82-2.27-3.84-.39,0-.71.28-.87.44Zm-.35-12.93c-.76.07-1.45.82-1.66,1.57-.27.94.23,1.8.79,2.71,1.79,2.89,2.77,3.81,4.37,6.03,1.54,2.14,2.19,3.47,3.41,3.49.09,0,.73,0,1.22-.44.78-.7.6-2.02.52-2.53-.35-2.55-2.21-3.32-5.17-7.19-1.79-2.35-2.39-3.74-3.48-3.64Zm-2.36-11.18c-.79.37-1.15,1.75-.87,2.8.41,1.56,1.99,1.51,4.46,3.58,1.32,1.11,2.25,2.29,3.76,4.19,1.72,2.18,2.28,3.28,3.23,3.23.81-.04,1.69-.89,1.92-1.83.3-1.23-.53-2.45-7.25-8.54-3.15-2.86-4.35-3.84-5.24-3.42Zm-3.14-11.36c-.68.1-1.54.56-1.66,1.22-.14.76.78,1.34,3.06,3.23.11.09,1.5,1.28,4.28,3.67,2.38,2.04,2.97,2.62,3.93,2.53.9-.08,1.96-.73,2.1-1.57.13-.77-.6-1.29-4.46-4.46-1.3-1.07-2.69-2.03-4.02-3.06-1.41-1.09-2.21-1.72-3.23-1.57Zm-3.41-7.69c-.47.15-1.35.59-1.4,1.22-.02.25.06.81,4.19,2.88,2.39,1.2,3.03,1.35,3.58,1.05.6-.33.99-1.14.87-1.83-.05-.29-.24-.85-3.76-2.45-2.16-.98-2.81-1.09-3.49-.87Zm-29.7-45.42c-.86.46-.81,1.77-1,5.44-.14,2.66-.2,3.99-.33,4.66-.51,2.66-1.37,3.74-.78,4.44.53.62,1.91.58,2.78,0,1.03-.68,1.14-1.97,1.33-4.89.51-7.9.36-9.2-.56-9.66-.45-.23-1.03-.22-1.44,0Zm2.91-9.4c-1.08,1.38.9,3.6,2.2,8.62.66,2.56,1.08,4.2.89,6.44-.29,3.37-1.73,5.19-.78,6.22.66.71,2.15.69,3.11.11,1.69-1.02,1.66-3.7,1.55-7.89-.02-.97-.18-5.55-2.23-10.79-.71-1.83-1.45-3.2-2.66-3.42-.66-.12-1.6.08-2.09.71Zm-1.8-20.59c-.69.3-.97,1.24-1,1.89-.06,1.23.74,2.18.96,2.45,3.52,4.22,6.37,7.65,7.8,10.08,2.1,3.59,4.25,10.4,4.12,14.13-.01.38-.08,1.6.67,2.22.8.66,2.41.51,3.11-.33.43-.52.43-1.18.42-1.44-.17-7.13-2.64-12.77-2.64-12.77-1.27-2.91-2.42-4.87-3.66-7,0,0-3.45-5.91-7.72-8.69-.56-.36-1.37-.82-2.06-.52Zm-12.66-49.31c-.5.39-.45,1.25-.44,1.33.09,1.15,1.22,1.91,1.67,2.22,1.88,1.3,3.48,2.97,5.22,4.44.61.52,2.04,2.57,4.89,6.66,2.77,3.99,3.98,5.84,5.66,5.78.12,0,1.05-.05,1.44-.67.32-.51.27-1.37-1-3.44-1.28-2.09-2.53-3.34-3.44-4.33-2.27-2.46-1.62-2.39-4.33-5.55-2.29-2.67-3.88-4.04-5.55-5.11-1.14-.73-3.2-2.03-4.11-1.33Zm15.77,4.78c-.84.05-1.75.76-1.89,1.56-.14.86.64,1.64,1,2,2.23,2.25,4.06,4.87,6.21,7.21,2.8,3.05,1.91,2.92,4.23,5.23,1.19,1.18,2.9,2.42,6.33,4.89,1.49,1.07,2.77,1.95,4.66,2.33,1.04.21,2.38.48,3.11-.33.68-.76.58-2.21-.11-2.89-.63-.62-1.5-.35-2.55-.44-1.58-.13-2.57-.97-5-3.11-3.91-3.44-5.87-5.17-6.33-5.66-3.7-4-5.89-7.11-5.89-7.11-1.47-2.09-2.42-3.74-3.78-3.66Zm14.88,5.55c-.9-.02-2.2.28-2.55,1.11-.86,2.02,4.44,6.03,6.89,7.88,2.6,1.97,5.74,4.3,10.55,5.78,2.6.8,4.81.83,9.22.89,1.01.01,2.47,0,3-.89.39-.66.22-1.7-.33-2.33-.94-1.08-2.6-.56-5.55-.67,0,0-2.08-.07-5.2-.79-.74-.17-4.56-1.09-8.13-3.88-4.44-3.47-4.95-7.04-7.88-7.11Zm14.22,2.89c-.89.56-1.32,2.18-.78,3.22.82,1.57,3.71,1.48,8.11,1.33,4.97-.16,8.42-1.03,9.55-1.33,2.75-.73,4.24-1.44,6.55-2.55,3.01-1.44,3.91-2.27,4.11-3.33.17-.91-.15-2.07-.89-2.44-.95-.48-2.12.61-4.11,1.78-2.85,1.67-5.35,2.32-7.55,2.89-2.99.77-5.49.92-6.89,1-1.87.1-2.8.15-3.87,0-2.38-.33-3.34-1.12-4.23-.56Zm-33.76,185.69c-.79.05-1.64.65-1.89,1.44-.45,1.45,1.4,2.69,3.22,5.22,1.42,1.98,2.21,4.21,3.78,8.66,1.6,4.53,1.75,6.5,3.33,7,1.04.33,2.38-.07,2.89-.89.55-.89-.05-2.03-1.44-5-1.02-2.17-1.99-4.37-3-6.55-1.5-3.25-1.82-4.21-3-6.11-2.32-3.71-3.46-3.8-3.89-3.78Zm-1.56,15.44c-.8-.06-1.72.68-2.11,1.55-.79,1.75.81,3.42,3.89,9.33,1.25,2.4,1.87,3.6,2.44,5.11,1.75,4.65,2.11,6.11,2.11,6.11.39,1.6.48,2.45,1.22,2.89,1.01.59,2.85.18,3.55-.89.59-.9.16-1.93-2.89-8.55-2.99-6.5-2.59-5.55-3.33-7.22,0,0-.52-1.18-1.38-2.98-2.17-4.57-2.78-5.29-3.51-5.35Zm-3.89,9.22c-.95-.25-2.21-.05-2.67.67-.69,1.09.83,2.74,2.67,6.33,1.22,2.38,1.84,4.18,2.89,7.22.63,1.81,1.53,4.46,2.22,8,.4,2.06.6,3.09.71,4.44.26,3.36-.25,4.87.63,5.45.84.55,2.52-.03,3.33-1.11.88-1.18.47-2.6-.33-6.22-1.41-6.38-.86-5.32-1.67-8.11-.57-1.98-.67-1.88-3.11-8.22-2.37-6.15-2.96-7.99-4.66-8.44Zm-4.33,8.11c-.9-.12-1.96.49-2.33,1.33-.6,1.35.7,2.93,1.78,4.78,1.11,1.91,1.7,4.31,2.89,9.11,1.17,4.74,1.75,7.11,1.67,10.22-.12,4.11-1.22,6.79.22,7.88.7.54,1.82.55,2.55.11,1.29-.77,1.34-2.9,1.11-6.44-.45-6.87-1.5-11.87-1.55-12.11,0,0-.81-3.77-3.22-10.33-.92-2.51-1.72-4.37-3.11-4.55Zm-4.11,10.99c-.82-.22-1.96.11-2.55.89-1.42,1.86,1.43,4.62,2.64,11.02.65,3.48.58,6.75.58,6.75-.05,2.47.05,4.24.26,7.78.06,1.08.14,2.18.85,2.55.78.4,2-.24,2.67-1,.86-.97.9-2.23.89-3.11-.03-3.5-.82-6.33-1-7-1.24-4.59-.13-4.62-1.55-11.66-.92-4.55-1.66-5.92-2.78-6.22Zm-5.22,8.77c-.96-.41-2.33.03-3,.89-1.08,1.39.04,3.41.89,6.55,1.35,4.98,1.12,9.42,1,11.88-.26,5.07-1.49,7.5,0,8.77.88.75,2.45.86,3.44.22,1.05-.68,1.38-2.13.78-10.55-.44-6.1-.45-3.17-1.22-10.88-.42-4.21-.53-6.31-1.89-6.89Zm-6,13.77c-.78-.35-2,.17-2.66,1-1.16,1.45.1,2.97.33,7.55.19,3.66,0,6.44,0,6.44-.13,1.94-.33,3.06.33,3.55.76.57,2.43.12,3.33-.89.82-.91.7-1.92.33-7.33,0-.07-.14-2.12-.44-5.33-.35-3.71-.51-4.68-1.22-5Zm-8.44,4.11c-.78-.3-1.99.32-2.44,1.22-.52,1.03.31,1.7.67,4.11.35,2.37-.22,3.3.56,4,.67.61,1.98.68,2.66.11.37-.31.63-.85-.22-5.89-.46-2.72-.67-3.34-1.22-3.55Z"/>
  <text class="cls-4" transform="translate(-3.57 234.23)"><tspan class="cls-2" x="0" y="0">F</tspan><tspan class="cls-6" x="44.65" y="0">r</tspan><tspan class="cls-1" x="80.87" y="0">ey</tspan><tspan x="165.42" y="0">a</tspan></text>
  <text class="cls-4" transform="translate(367.83 234.93)"><tspan class="cls-3" x="0" y="0">Eme</tspan><tspan class="cls-7" x="161.42" y="0">r</tspan><tspan x="198.27" y="0">y</tspan></text>
</svg>